<svg xmlns="http://www.w3.org/2000/svg" viewBox="0 0 1440 320"><path fill="#1C237E" fill-opacity="1" d="M0,160L30,149.3C60,139,120,117,180,112C240,107,300,117,360,117.3C420,117,480,107,540,96C600,85,660,75,720,112C780,149,840,235,900,234.7C960,235,1020,149,1080,106.7C1140,64,1200,64,1260,80C1320,96,1380,128,1410,144L1440,160L1440,320L1410,320C1380,320,1320,320,1260,320C1200,320,1140,320,1080,320C1020,320,960,320,900,320C840,320,780,320,720,320C660,320,600,320,540,320C480,320,420,320,360,320C300,320,240,320,180,320C120,320,60,320,30,320L0,320Z"></path></svg>