<svg version="1.1" id="Layer_1" xmlns="http://www.w3.org/2000/svg" xmlns:xlink="http://www.w3.org/1999/xlink" x="0px" y="0px"
	 width="150" height="150" viewBox="0 0 512 512" enable-background="new 0 0 512 512" xml:space="preserve">
<path fill="#FFFFFF00" opacity="1.000000" stroke="none" 
	d="
M513.000000,309.000000 
	C513.000000,376.977600 513.000000,444.955200 513.000000,512.966431 
	C342.411987,512.966431 171.823944,512.966431 1.117959,512.966431 
	C1.117959,342.333374 1.117959,171.666702 1.117959,1.000000 
	C32.084908,1.000000 63.074600,1.000000 94.372025,1.357220 
	C75.266960,5.545110 60.063698,16.169605 46.368671,30.856474 
	C101.449600,30.856474 155.446442,30.856474 209.443283,30.856474 
	C194.443832,24.129606 179.237595,18.237759 163.781586,13.096784 
	C150.334274,8.623936 136.604797,4.999400 123.000000,1.000000 
	C252.912552,1.000000 382.825104,1.000000 513.000000,1.000000 
	C513.000000,86.687920 513.000000,172.376114 512.631470,258.322449 
	C511.162720,250.027023 510.437561,241.405212 508.896393,232.931839 
	C502.714661,198.944183 482.632660,174.950653 453.665405,157.003998 
	C449.460510,166.207458 445.193695,175.148880 441.319763,184.257370 
	C440.088501,187.152344 438.658752,188.095016 435.515717,188.079712 
	C407.355072,187.942535 379.193512,187.999710 351.032196,187.999725 
	C342.593292,187.999725 334.154388,187.999725 325.742126,187.999725 
	C325.742126,262.249237 325.742126,335.945496 325.742126,409.964355 
	C327.666016,409.964355 329.157227,409.913879 330.644226,409.971893 
	C353.443787,410.861023 376.236237,412.081146 399.044220,412.554535 
	C414.617981,412.877777 430.147186,414.662170 445.840454,412.222137 
	C456.144592,410.619965 464.411682,407.449341 471.668549,399.514557 
	C490.380798,379.054413 503.453064,355.889526 509.049591,328.646240 
	C510.393738,322.103119 511.684601,315.549042 513.000000,309.000000 
M325.884796,86.707626 
	C290.878601,69.306450 255.872391,51.905277 220.558594,34.351196 
	C219.843735,36.276638 219.343567,37.482975 218.943787,38.721714 
	C212.949707,57.294456 206.869583,75.840553 201.067657,94.473244 
	C199.889572,98.256615 198.241669,99.522751 194.147614,99.500946 
	C157.652466,99.306503 121.155861,99.387718 84.659676,99.387718 
	C82.711304,99.387718 80.762932,99.387726 78.559280,99.387726 
	C78.559280,143.232651 78.559280,186.449036 78.559280,230.186478 
	C122.409981,230.186478 165.966553,230.186478 209.426895,230.186478 
	C209.426895,253.102982 209.426895,275.496399 209.426895,298.333618 
	C165.640549,298.333618 122.220131,298.333618 78.639236,298.333618 
	C78.639236,341.814819 78.639236,384.846283 78.639236,428.240326 
	C118.805252,428.240326 158.596268,428.240326 198.476379,428.240326 
	C205.323959,449.121063 212.070831,469.701721 218.823013,490.280670 
	C221.129654,497.310730 221.078232,497.041656 228.315659,495.484100 
	C257.607117,489.180176 286.854523,482.622620 316.279419,477.003082 
	C339.129333,472.639221 361.717255,467.754822 382.968567,457.975525 
	C383.969269,457.515015 384.906494,456.916595 385.873260,456.382416 
	C385.756744,456.060944 385.640228,455.739471 385.523743,455.417999 
	C348.918884,455.417999 312.314026,455.417999 275.515259,455.417999 
	C275.515259,350.772095 275.515259,246.556213 275.515259,141.936737 
	C326.016693,141.936737 376.230011,141.936737 427.348816,141.936737 
	C419.427307,136.394485 412.742401,130.561417 405.094421,126.576904 
	C379.104156,113.036293 352.773804,100.148476 325.884796,86.707626 
M26.838007,137.500031 
	C26.838007,111.868683 26.838007,86.237335 26.838007,59.585468 
	C25.661613,60.925476 25.251629,61.242386 25.035868,61.659710 
	C11.907126,87.053123 4.640903,114.154747 3.197132,142.579605 
	C2.423318,157.814423 2.770126,173.244156 4.302921,188.415009 
	C5.556797,200.825256 8.745511,213.142120 12.120629,225.208298 
	C15.764647,238.235779 20.619703,250.924637 24.953466,263.758850 
	C25.328693,264.870087 25.756060,265.963745 26.159210,267.065552 
	C26.385469,266.990448 26.611727,266.915344 26.837986,266.840240 
	C26.837986,224.060181 26.837986,181.280106 26.838007,137.500031 
z"/>
<path fill="#1C237E" opacity="1.000000" stroke="none" 
	d="
M513.000000,308.531342 
	C511.684601,315.549042 510.393738,322.103119 509.049591,328.646240 
	C503.453064,355.889526 490.380798,379.054413 471.668549,399.514557 
	C464.411682,407.449341 456.144592,410.619965 445.840454,412.222137 
	C430.147186,414.662170 414.617981,412.877777 399.044220,412.554535 
	C376.236237,412.081146 353.443787,410.861023 330.644226,409.971893 
	C329.157227,409.913879 327.666016,409.964355 325.742126,409.964355 
	C325.742126,335.945496 325.742126,262.249237 325.742126,187.999725 
	C334.154388,187.999725 342.593292,187.999725 351.032196,187.999725 
	C379.193512,187.999710 407.355072,187.942535 435.515717,188.079712 
	C438.658752,188.095016 440.088501,187.152344 441.319763,184.257370 
	C445.193695,175.148880 449.460510,166.207458 453.665405,157.003998 
	C482.632660,174.950653 502.714661,198.944183 508.896393,232.931839 
	C510.437561,241.405212 511.162720,250.027023 512.631470,258.790283 
	C513.000000,275.354218 513.000000,291.708466 513.000000,308.531342 
z"/>
<path fill="#1C237E" opacity="1.000000" stroke="none" 
	d="
M122.531342,1.000000 
	C136.604797,4.999400 150.334274,8.623936 163.781586,13.096784 
	C179.237595,18.237759 194.443832,24.129606 209.443283,30.856474 
	C155.446442,30.856474 101.449600,30.856474 46.368671,30.856474 
	C60.063698,16.169605 75.266960,5.545110 94.839874,1.357220 
	C104.020897,1.000000 113.041786,1.000000 122.531342,1.000000 
z"/>
<path fill="#1C237E" opacity="1.000000" stroke="none" 
	d="
M326.229065,86.859497 
	C352.773804,100.148476 379.104156,113.036293 405.094421,126.576904 
	C412.742401,130.561417 419.427307,136.394485 427.348816,141.936737 
	C376.230011,141.936737 326.016693,141.936737 275.515259,141.936737 
	C275.515259,246.556213 275.515259,350.772095 275.515259,455.417999 
	C312.314026,455.417999 348.918884,455.417999 385.523743,455.417999 
	C385.640228,455.739471 385.756744,456.060944 385.873260,456.382416 
	C384.906494,456.916595 383.969269,457.515015 382.968567,457.975525 
	C361.717255,467.754822 339.129333,472.639221 316.279419,477.003082 
	C286.854523,482.622620 257.607117,489.180176 228.315659,495.484100 
	C221.078232,497.041656 221.129654,497.310730 218.823013,490.280670 
	C212.070831,469.701721 205.323959,449.121063 198.476379,428.240326 
	C158.596268,428.240326 118.805252,428.240326 78.639236,428.240326 
	C78.639236,384.846283 78.639236,341.814819 78.639236,298.333618 
	C122.220131,298.333618 165.640549,298.333618 209.426895,298.333618 
	C209.426895,275.496399 209.426895,253.102982 209.426895,230.186478 
	C165.966553,230.186478 122.409981,230.186478 78.559280,230.186478 
	C78.559280,186.449036 78.559280,143.232651 78.559280,99.387726 
	C80.762932,99.387726 82.711304,99.387718 84.659676,99.387718 
	C121.155861,99.387718 157.652466,99.306503 194.147614,99.500946 
	C198.241669,99.522751 199.889572,98.256615 201.067657,94.473244 
	C206.869583,75.840553 212.949707,57.294456 218.943787,38.721714 
	C219.343567,37.482975 219.843735,36.276638 220.558594,34.351196 
	C255.872391,51.905277 290.878601,69.306450 326.229065,86.859497 
z"/>
<path fill="#1C237E" opacity="1.000000" stroke="none" 
	d="
M26.837997,138.000031 
	C26.837986,181.280106 26.837986,224.060181 26.837986,266.840240 
	C26.611727,266.915344 26.385469,266.990448 26.159210,267.065552 
	C25.756060,265.963745 25.328693,264.870087 24.953466,263.758850 
	C20.619703,250.924637 15.764647,238.235779 12.120629,225.208298 
	C8.745511,213.142120 5.556797,200.825256 4.302921,188.415009 
	C2.770126,173.244156 2.423318,157.814423 3.197132,142.579605 
	C4.640903,114.154747 11.907126,87.053123 25.035868,61.659710 
	C25.251629,61.242386 25.661613,60.925476 26.838007,59.585468 
	C26.838007,86.237335 26.838007,111.868683 26.837997,138.000031 
z"/>
</svg>